<svg xmlns="http://www.w3.org/2000/svg" viewBox="0 0 480 340" width="480" height="340">
<ellipse cx="240" cy="318" rx="225" ry="20" fill="#e9e4f2" stroke="#2b2140" stroke-width="4"/><rect x="25" y="190" width="430" height="122" rx="18" fill="#c7a37a" stroke="#2b2140" stroke-width="5"/><path d="M25 210 q0 -22 22 -22 h386 q22 0 22 22 v18 q-18 18 -35.8 0 q-18 18 -35.8 0 q-18 18 -35.8 0 q-18 18 -35.8 0 q-18 18 -35.8 0 q-18 18 -35.8 0 q-18 18 -35.8 0 q-18 18 -35.8 0 q-18 18 -35.8 0 q-18 18 -35.8 0 q-18 18 -35.8 0 q-18 18 -35.8 0 z" fill="#fff0d9" stroke="#2b2140" stroke-width="5" stroke-linejoin="round"/><circle cx="60" cy="268" r="6" fill="#fff" opacity="0.85"/><circle cx="100" cy="284" r="6" fill="#fff" opacity="0.85"/><circle cx="140" cy="268" r="6" fill="#fff" opacity="0.85"/><circle cx="180" cy="284" r="6" fill="#fff" opacity="0.85"/><circle cx="220" cy="268" r="6" fill="#fff" opacity="0.85"/><circle cx="260" cy="284" r="6" fill="#fff" opacity="0.85"/><circle cx="300" cy="268" r="6" fill="#fff" opacity="0.85"/><circle cx="340" cy="284" r="6" fill="#fff" opacity="0.85"/><circle cx="380" cy="268" r="6" fill="#fff" opacity="0.85"/><circle cx="420" cy="284" r="6" fill="#fff" opacity="0.85"/><rect x="31" y="118" width="12" height="72" rx="3" fill="#ff5a6e" stroke="#2b2140" stroke-width="3"/><path d="M31 136 l12 -8 M31 156 l12 -8 M31 176 l12 -8" stroke="#fff" stroke-width="3" opacity="0.8"/><path d="M37 94 q9 12 0 19 q-9 -7 0 -19z" fill="#ffc53d" stroke="#e8590c" stroke-width="2.5"/><rect x="53" y="118" width="12" height="72" rx="3" fill="#ff5a6e" stroke="#2b2140" stroke-width="3"/><path d="M53 136 l12 -8 M53 156 l12 -8 M53 176 l12 -8" stroke="#fff" stroke-width="3" opacity="0.8"/><path d="M59 94 q9 12 0 19 q-9 -7 0 -19z" fill="#ffc53d" stroke="#e8590c" stroke-width="2.5"/><rect x="75" y="118" width="12" height="72" rx="3" fill="#ff5a6e" stroke="#2b2140" stroke-width="3"/><path d="M75 136 l12 -8 M75 156 l12 -8 M75 176 l12 -8" stroke="#fff" stroke-width="3" opacity="0.8"/><path d="M81 94 q9 12 0 19 q-9 -7 0 -19z" fill="#ffc53d" stroke="#e8590c" stroke-width="2.5"/><rect x="97" y="118" width="12" height="72" rx="3" fill="#ff5a6e" stroke="#2b2140" stroke-width="3"/><path d="M97 136 l12 -8 M97 156 l12 -8 M97 176 l12 -8" stroke="#fff" stroke-width="3" opacity="0.8"/><path d="M103 94 q9 12 0 19 q-9 -7 0 -19z" fill="#ffc53d" stroke="#e8590c" stroke-width="2.5"/><rect x="119" y="118" width="12" height="72" rx="3" fill="#ff5a6e" stroke="#2b2140" stroke-width="3"/><path d="M119 136 l12 -8 M119 156 l12 -8 M119 176 l12 -8" stroke="#fff" stroke-width="3" opacity="0.8"/><path d="M125 94 q9 12 0 19 q-9 -7 0 -19z" fill="#ffc53d" stroke="#e8590c" stroke-width="2.5"/><rect x="159" y="118" width="12" height="72" rx="3" fill="#4da3ff" stroke="#2b2140" stroke-width="3"/><path d="M159 136 l12 -8 M159 156 l12 -8 M159 176 l12 -8" stroke="#fff" stroke-width="3" opacity="0.8"/><path d="M165 94 q9 12 0 19 q-9 -7 0 -19z" fill="#ffc53d" stroke="#e8590c" stroke-width="2.5"/><rect x="181" y="118" width="12" height="72" rx="3" fill="#4da3ff" stroke="#2b2140" stroke-width="3"/><path d="M181 136 l12 -8 M181 156 l12 -8 M181 176 l12 -8" stroke="#fff" stroke-width="3" opacity="0.8"/><path d="M187 94 q9 12 0 19 q-9 -7 0 -19z" fill="#ffc53d" stroke="#e8590c" stroke-width="2.5"/><rect x="203" y="118" width="12" height="72" rx="3" fill="#4da3ff" stroke="#2b2140" stroke-width="3"/><path d="M203 136 l12 -8 M203 156 l12 -8 M203 176 l12 -8" stroke="#fff" stroke-width="3" opacity="0.8"/><path d="M209 94 q9 12 0 19 q-9 -7 0 -19z" fill="#ffc53d" stroke="#e8590c" stroke-width="2.5"/><rect x="225" y="118" width="12" height="72" rx="3" fill="#4da3ff" stroke="#2b2140" stroke-width="3"/><path d="M225 136 l12 -8 M225 156 l12 -8 M225 176 l12 -8" stroke="#fff" stroke-width="3" opacity="0.8"/><path d="M231 94 q9 12 0 19 q-9 -7 0 -19z" fill="#ffc53d" stroke="#e8590c" stroke-width="2.5"/><rect x="247" y="118" width="12" height="72" rx="3" fill="#4da3ff" stroke="#2b2140" stroke-width="3"/><path d="M247 136 l12 -8 M247 156 l12 -8 M247 176 l12 -8" stroke="#fff" stroke-width="3" opacity="0.8"/><path d="M253 94 q9 12 0 19 q-9 -7 0 -19z" fill="#ffc53d" stroke="#e8590c" stroke-width="2.5"/><rect x="287" y="118" width="12" height="72" rx="3" fill="#3ccf7a" stroke="#2b2140" stroke-width="3"/><path d="M287 136 l12 -8 M287 156 l12 -8 M287 176 l12 -8" stroke="#fff" stroke-width="3" opacity="0.8"/><path d="M293 94 q9 12 0 19 q-9 -7 0 -19z" fill="#ffc53d" stroke="#e8590c" stroke-width="2.5"/><rect x="309" y="118" width="12" height="72" rx="3" fill="#3ccf7a" stroke="#2b2140" stroke-width="3"/><path d="M309 136 l12 -8 M309 156 l12 -8 M309 176 l12 -8" stroke="#fff" stroke-width="3" opacity="0.8"/><path d="M315 94 q9 12 0 19 q-9 -7 0 -19z" fill="#ffc53d" stroke="#e8590c" stroke-width="2.5"/><rect x="331" y="118" width="12" height="72" rx="3" fill="#3ccf7a" stroke="#2b2140" stroke-width="3"/><path d="M331 136 l12 -8 M331 156 l12 -8 M331 176 l12 -8" stroke="#fff" stroke-width="3" opacity="0.8"/><path d="M337 94 q9 12 0 19 q-9 -7 0 -19z" fill="#ffc53d" stroke="#e8590c" stroke-width="2.5"/><rect x="353" y="118" width="12" height="72" rx="3" fill="#3ccf7a" stroke="#2b2140" stroke-width="3"/><path d="M353 136 l12 -8 M353 156 l12 -8 M353 176 l12 -8" stroke="#fff" stroke-width="3" opacity="0.8"/><path d="M359 94 q9 12 0 19 q-9 -7 0 -19z" fill="#ffc53d" stroke="#e8590c" stroke-width="2.5"/><rect x="375" y="118" width="12" height="72" rx="3" fill="#3ccf7a" stroke="#2b2140" stroke-width="3"/><path d="M375 136 l12 -8 M375 156 l12 -8 M375 176 l12 -8" stroke="#fff" stroke-width="3" opacity="0.8"/><path d="M381 94 q9 12 0 19 q-9 -7 0 -19z" fill="#ffc53d" stroke="#e8590c" stroke-width="2.5"/><rect x="415" y="118" width="12" height="72" rx="3" fill="#ffb627" stroke="#2b2140" stroke-width="3"/><path d="M415 136 l12 -8 M415 156 l12 -8 M415 176 l12 -8" stroke="#fff" stroke-width="3" opacity="0.8"/><path d="M421 94 q9 12 0 19 q-9 -7 0 -19z" fill="#ffc53d" stroke="#e8590c" stroke-width="2.5"/><rect x="437" y="118" width="12" height="72" rx="3" fill="#ffb627" stroke="#2b2140" stroke-width="3"/><path d="M437 136 l12 -8 M437 156 l12 -8 M437 176 l12 -8" stroke="#fff" stroke-width="3" opacity="0.8"/><path d="M443 94 q9 12 0 19 q-9 -7 0 -19z" fill="#ffc53d" stroke="#e8590c" stroke-width="2.5"/><circle cx="438" cy="46" r="36" fill="#fff" stroke="#2b2140" stroke-width="5"/><text x="438" y="63" text-anchor="middle" font-family="Arial, Helvetica, sans-serif" font-size="48" font-weight="900" fill="#2b2140">B</text>
</svg>
