<svg xmlns="http://www.w3.org/2000/svg" viewBox="0 0 400 400" width="400" height="400">
<g transform="rotate(-10 110 200)"><rect x="93" y="70" width="34" height="210" rx="10" fill="#1f5fd6" stroke="#2b2140" stroke-width="5" stroke-linejoin="round" stroke-linecap="round"/><rect x="93" y="70" width="34" height="55" rx="8" fill="#e8e8ee" stroke="#2b2140" stroke-width="5" stroke-linejoin="round" stroke-linecap="round"/><rect x="122" y="78" width="8" height="70" rx="3" fill="#e8e8ee" stroke="#2b2140" stroke-width="5" stroke-linejoin="round" stroke-linecap="round"/><path d="M93 280 l17 50 l17 -50z" fill="#e8e8ee" stroke="#2b2140" stroke-width="5" stroke-linejoin="round" stroke-linecap="round"/><path d="M105 316 l5 14 l5 -14z" fill="#1f5fd6"/></g><g transform="rotate(0 200 200)"><rect x="183" y="70" width="34" height="210" rx="10" fill="#e0201b" stroke="#2b2140" stroke-width="5" stroke-linejoin="round" stroke-linecap="round"/><rect x="183" y="70" width="34" height="55" rx="8" fill="#e8e8ee" stroke="#2b2140" stroke-width="5" stroke-linejoin="round" stroke-linecap="round"/><rect x="212" y="78" width="8" height="70" rx="3" fill="#e8e8ee" stroke="#2b2140" stroke-width="5" stroke-linejoin="round" stroke-linecap="round"/><path d="M183 280 l17 50 l17 -50z" fill="#e8e8ee" stroke="#2b2140" stroke-width="5" stroke-linejoin="round" stroke-linecap="round"/><path d="M195 316 l5 14 l5 -14z" fill="#e0201b"/></g><g transform="rotate(10 290 200)"><rect x="273" y="70" width="34" height="210" rx="10" fill="#141414" stroke="#2b2140" stroke-width="5" stroke-linejoin="round" stroke-linecap="round"/><rect x="273" y="70" width="34" height="55" rx="8" fill="#e8e8ee" stroke="#2b2140" stroke-width="5" stroke-linejoin="round" stroke-linecap="round"/><rect x="302" y="78" width="8" height="70" rx="3" fill="#e8e8ee" stroke="#2b2140" stroke-width="5" stroke-linejoin="round" stroke-linecap="round"/><path d="M273 280 l17 50 l17 -50z" fill="#e8e8ee" stroke="#2b2140" stroke-width="5" stroke-linejoin="round" stroke-linecap="round"/><path d="M285 316 l5 14 l5 -14z" fill="#141414"/></g>
</svg>
